<?xml version="1.0" encoding="UTF-8"?>
<svg width="512" height="512" viewBox="0 0 512 512" xmlns="http://www.w3.org/2000/svg">
  <path id="1" d="M 225.500,458.056 C 202.637,453.986 183.841,447.766 163.500,437.539 C 163.500,437.539 149.500,430.500 149.500,430.500 C 149.500,430.500 148.844,338 148.844,338 C 148.483,287.125 147.922,243.475 147.597,241 C 147.597,241 147.006,236.500 147.006,236.500 C 147.006,236.500 148.413,241 148.413,241 C 149.606,244.817 155.026,264.037 169.848,317 C 169.848,317 172.507,326.500 172.507,326.500 C 172.507,326.500 191.399,326.500 191.399,326.500 C 191.399,326.500 210.290,326.500 210.290,326.500 C 210.290,326.500 211.558,322 211.558,322 C 212.255,319.525 215.642,307.150 219.084,294.500 C 230.840,251.298 236.014,233.498 235.505,238 C 235.225,240.475 234.715,255.663 234.372,271.750 C 233.836,296.894 233.951,301 235.195,301 C 235.991,301 241.103,294.587 246.554,286.750 C 252.006,278.913 262.228,264.400 269.271,254.500 C 279.783,239.724 282.025,235.963 281.788,233.500 C 281.788,233.500 281.500,230.500 281.500,230.500 C 281.500,230.500 259.500,230.232 259.500,230.232 C 259.500,230.232 237.500,229.965 237.500,229.965 C 237.500,229.965 237.813,205.657 237.813,205.657 C 238.075,185.278 237.890,181.153 236.664,180.136 C 235.687,179.325 232.103,179.018 225.856,179.211 C 225.856,179.211 216.510,179.500 216.510,179.500 C 216.510,179.500 209.295,207 209.295,207 C 205.326,222.125 200.393,241.016 198.333,248.980 C 198.333,248.980 194.587,263.461 194.587,263.461 C 194.587,263.461 193.275,258.980 193.275,258.980 C 191.834,254.060 184.438,226.313 177.287,199 C 174.767,189.375 172.266,180.938 171.730,180.250 C 170.550,178.737 106.483,178.411 105.554,179.913 C 105.244,180.415 104.959,228.565 104.921,286.913 C 104.883,345.261 104.735,393 104.591,393 C 104.447,393 101.159,389.062 97.283,384.250 C 68.071,347.978 51.896,302.277 51.923,256.083 C 51.933,239.052 52.869,230.421 56.581,213.118 C 63.105,182.709 78.540,150.274 97.626,126.868 C 104.957,117.877 123.819,99.771 133.112,92.803 C 182.354,55.881 246.216,42.986 305.578,57.978 C 327.815,63.594 350.499,73.549 368.500,85.591 C 410.727,113.840 440.030,154.649 452.956,203.206 C 458.247,223.080 460.049,236.518 460.034,255.988 C 460.022,271.500 458.237,290.097 456.603,291.731 C 456.320,292.014 425.697,291.852 388.551,291.372 C 388.551,291.372 321.013,290.500 321.013,290.500 C 321.013,290.500 337.851,266.500 337.851,266.500 C 347.112,253.300 362.185,231.925 371.345,219 C 371.345,219 388,195.500 388,195.500 C 388,195.500 387.750,187.500 387.750,187.500 C 387.750,187.500 387.500,179.500 387.500,179.500 C 387.500,179.500 320,179.500 320,179.500 C 320,179.500 252.500,179.500 252.500,179.500 C 252.500,179.500 252.500,197 252.500,197 C 252.500,197 252.500,214.500 252.500,214.500 C 252.500,214.500 283.288,215 283.288,215 C 283.288,215 314.076,215.500 314.076,215.500 C 314.076,215.500 299.622,236 299.622,236 C 291.672,247.275 276.632,268.650 266.200,283.500 C 266.200,283.500 247.232,310.500 247.232,310.500 C 247.232,310.500 246.866,318.500 246.866,318.500 C 246.866,318.500 246.500,326.500 246.500,326.500 C 246.500,326.500 346.816,326.755 346.816,326.755 C 346.816,326.755 447.132,327.010 447.132,327.010 C 447.132,327.010 446.482,329.255 446.482,329.255 C 444.980,334.449 432.632,358.761 427.413,366.801 C 395.357,416.186 344.457,448.718 284,458.461 C 270.486,460.639 238.775,460.419 225.500,458.056M 186.756,361.824 C 186.756,361.824 187.325,359.647 187.325,359.647 C 195.157,368.167 195.157,356.822 198.244,363.820 C 200.357,363.520 200.500,363.023 200.500,356 C 200.500,356 200.500,348.500 200.500,348.500 C 200.500,348.500 197.229,348.185 197.229,348.185 C 194.403,347.913 193.785,348.283 190.267,350.896 C 189.267,348.247 188.705,347.904 185.811,348.182 C 185.811,348.182 182.500,348.500 182.500,348.500 C 182.500,348.500 182.199,354.895 182.199,354.895 C 182.033,358.412 182.131,361.900 182.417,362.645 C 183.235,364.776 186.127,364.228 186.756,361.824M 219.048,361.952 C 220.724,360.276 221.042,358.866 220.798,354.202 C 220.519,348.867 220.339,348.500 218,348.500 C 215.689,348.500 215.477,348.897 215.198,353.750 C 214.946,358.131 214.582,359 213,359 C 211.418,359 211.054,358.131 210.802,353.750 C 210.523,348.897 210.311,348.500 208,348.500 C 205.652,348.500 205.482,348.856 205.197,354.362 C 204.809,361.859 206.465,364 212.655,364 C 215.701,364 217.612,363.388 219.048,361.952M 234.804,358.205 C 235.068,353.595 235.435,352.786 237.635,351.949 C 242.421,350.129 239.760,348.500 232,348.500 C 224.206,348.500 221.583,350.130 226.419,351.969 C 228.705,352.838 229,353.506 229,357.809 C 229,363.281 229.538,364.210 232.459,363.792 C 234.174,363.547 234.549,362.653 234.804,358.205M 257.048,361.952 C 258.724,360.276 259.042,358.866 258.798,354.202 C 258.519,348.867 258.339,348.500 256,348.500 C 253.689,348.500 253.477,348.897 253.198,353.750 C 252.946,358.131 252.582,359 251,359 C 249.418,359 249.054,358.131 248.802,353.750 C 248.524,348.922 248.302,348.500 246.041,348.500 C 244.037,348.500 243.447,349.147 242.851,352 C 241.987,356.137 242.684,359.827 244.789,362.250 C 247.001,364.796 254.383,364.617 257.048,361.952M 267.500,363 C 267.840,362.450 269.190,362 270.500,362 C 271.810,362 273.160,362.450 273.500,363 C 274.260,364.229 277.684,364.321 278.419,363.131 C 278.715,362.653 277.913,359.165 276.636,355.381 C 274.315,348.501 274.314,348.500 270.546,348.500 C 266.818,348.500 266.752,348.570 264.401,355 C 263.094,358.575 262.230,362.062 262.481,362.750 C 263.025,364.241 266.622,364.420 267.500,363M 295.500,361.500 C 295.500,359.911 294.730,359.437 291.750,359.190 C 291.750,359.190 288,358.879 288,358.879 C 288,358.879 288,354.062 288,354.062 C 288,348.523 286.044,345.888 283.500,348 C 281.929,349.304 281.279,361.946 282.709,363.376 C 283.099,363.766 286.136,363.953 289.459,363.792 C 294.736,363.537 295.500,363.247 295.500,361.500M 312.500,361.510 C 312.500,360.113 311.657,359.368 309.672,359.010 C 309.672,359.010 306.845,358.500 306.845,358.500 C 306.845,358.500 310.010,354.138 310.010,354.138 C 311.984,351.418 312.822,349.422 312.236,348.836 C 311.719,348.319 308.417,348.032 304.898,348.198 C 300.011,348.428 298.500,348.854 298.500,350 C 298.500,350.825 299.513,351.644 300.750,351.820 C 303.599,352.225 303.571,352.697 300.419,357.335 C 296.603,362.951 297.591,364.152 305.736,363.796 C 311.723,363.534 312.500,363.272 312.500,361.510M 330.500,361.500 C 330.500,360.062 329.728,359.412 327.750,359.184 C 324.369,358.795 324.360,358.527 327.588,354.295 C 331.504,349.160 330.359,347.850 322.264,348.204 C 317.050,348.432 315.500,348.844 321,352.653 C 321,352.939 319.601,355.122 317.890,357.504 C 316.179,359.886 315.093,362.340 315.475,362.959 C 315.914,363.670 318.807,363.977 323.335,363.792 C 329.736,363.531 330.500,363.287 330.500,361.500M 171.500,161.500 C 171.500,159.546 170.745,159.494 138.564,159.236 C 118.797,159.078 105.249,159.351 104.681,159.919 C 104.160,160.440 104.007,161.577 104.341,162.446 C 104.880,163.851 108.656,163.998 138.224,163.764 C 170.746,163.506 171.500,163.455 171.500,161.500" stroke="#FFFFFF" fill="#FFFFFF" stroke-width="1"/>
</svg>
